<mxfile host="65bd71144e">
    <diagram id="HJeIl1c9CfEbAknVK3q1" name="Page-1">
        <mxGraphModel dx="1001" dy="682" grid="1" gridSize="10" guides="1" tooltips="1" connect="1" arrows="1" fold="1" page="1" pageScale="1" pageWidth="850" pageHeight="1100" math="0" shadow="0">
            <root>
                <mxCell id="0"/>
                <mxCell id="1" parent="0"/>
                <mxCell id="7" style="edgeStyle=none;html=1;entryX=0.5;entryY=0;entryDx=0;entryDy=0;" edge="1" parent="1" source="2" target="6">
                    <mxGeometry relative="1" as="geometry"/>
                </mxCell>
                <mxCell id="2" value="INICIO" style="html=1;dashed=0;whiteSpace=wrap;shape=mxgraph.dfd.start" parent="1" vertex="1">
                    <mxGeometry x="315" y="100" width="80" height="30" as="geometry"/>
                </mxCell>
                <mxCell id="11" style="edgeStyle=none;html=1;entryX=0.5;entryY=0;entryDx=0;entryDy=0;" edge="1" parent="1" source="3" target="10">
                    <mxGeometry relative="1" as="geometry"/>
                </mxCell>
                <mxCell id="17" style="edgeStyle=none;html=1;exitX=1;exitY=0.5;exitDx=0;exitDy=0;" edge="1" parent="1" source="3" target="16">
                    <mxGeometry relative="1" as="geometry"/>
                </mxCell>
                <mxCell id="3" value="INGRESO NOMBRE? (A)" style="shape=rhombus;html=1;dashed=0;whiteSpace=wrap;perimeter=rhombusPerimeter;" vertex="1" parent="1">
                    <mxGeometry x="295" y="240" width="120" height="120" as="geometry"/>
                </mxCell>
                <mxCell id="8" style="edgeStyle=none;html=1;exitX=0.5;exitY=1;exitDx=0;exitDy=0;entryX=0.5;entryY=0;entryDx=0;entryDy=0;" edge="1" parent="1" source="6" target="3">
                    <mxGeometry relative="1" as="geometry"/>
                </mxCell>
                <mxCell id="6" value="A = DIGITE SU NOMBE" style="html=1;dashed=0;whiteSpace=wrap;gradientColor=none;" vertex="1" parent="1">
                    <mxGeometry x="305" y="160" width="100" height="50" as="geometry"/>
                </mxCell>
                <mxCell id="9" value="FIN" style="html=1;dashed=0;whiteSpace=wrap;shape=mxgraph.dfd.start" vertex="1" parent="1">
                    <mxGeometry x="315" y="490" width="80" height="30" as="geometry"/>
                </mxCell>
                <mxCell id="10" value="SALUDOS (A)" style="shape=parallelogram;perimeter=parallelogramPerimeter;whiteSpace=wrap;html=1;dashed=0;" vertex="1" parent="1">
                    <mxGeometry x="270" y="400" width="170" height="50" as="geometry"/>
                </mxCell>
                <mxCell id="12" style="edgeStyle=none;html=1;exitX=0.5;exitY=1;exitDx=0;exitDy=0;entryX=0.5;entryY=0.5;entryDx=0;entryDy=-15;entryPerimeter=0;" edge="1" parent="1" source="10" target="9">
                    <mxGeometry relative="1" as="geometry"/>
                </mxCell>
                <mxCell id="13" value="SI" style="text;html=1;align=center;verticalAlign=middle;whiteSpace=wrap;rounded=0;" vertex="1" parent="1">
                    <mxGeometry x="290" y="360" width="60" height="30" as="geometry"/>
                </mxCell>
                <mxCell id="14" value="NO" style="text;html=1;align=center;verticalAlign=middle;whiteSpace=wrap;rounded=0;" vertex="1" parent="1">
                    <mxGeometry x="405" y="250" width="60" height="30" as="geometry"/>
                </mxCell>
                <mxCell id="15" value="&lt;p style=&quot;text-indent:-.25in;mso-list:l0 level1 lfo1&quot; class=&quot;MsoListParagraph&quot;&gt;&lt;b&gt;1. DiseÃ±a un&amp;nbsp;diagrama de flujo que solicite el nombre del usuario y luego muestre un mensaje&amp;nbsp;de saludo con su nombre.&lt;/b&gt;&lt;/p&gt;" style="text;html=1;align=center;verticalAlign=middle;whiteSpace=wrap;rounded=0;" vertex="1" parent="1">
                    <mxGeometry x="250" y="20" width="260" height="90" as="geometry"/>
                </mxCell>
                <mxCell id="18" style="edgeStyle=none;html=1;exitX=0.5;exitY=1;exitDx=0;exitDy=0;entryX=1;entryY=0.5;entryDx=0;entryDy=0;entryPerimeter=0;" edge="1" parent="1" source="16" target="9">
                    <mxGeometry relative="1" as="geometry">
                        <mxPoint x="350" y="490" as="targetPoint"/>
                        <Array as="points">
                            <mxPoint x="515" y="505"/>
                        </Array>
                    </mxGeometry>
                </mxCell>
                <mxCell id="16" value="DEBE INGRESAR UN NOMBRE" style="html=1;dashed=0;whiteSpace=wrap;" vertex="1" parent="1">
                    <mxGeometry x="465" y="280" width="100" height="50" as="geometry"/>
                </mxCell>
                <mxCell id="21" value="Edwin De Los Santos" style="text;html=1;align=center;verticalAlign=middle;whiteSpace=wrap;rounded=0;" vertex="1" parent="1">
                    <mxGeometry x="375" y="380" width="120" height="20" as="geometry"/>
                </mxCell>
            </root>
        </mxGraphModel>
    </diagram>
</mxfile>